<svg width="339" height="339" viewBox="0 0 339 339" fill="none" xmlns="http://www.w3.org/2000/svg">
<rect width="339" height="339" fill="url(#paint0_linear)"/>
<path d="M82.8352 200.523C96.3555 200.523 103.021 191.289 105.598 183.988C104.911 184.846 100.301 185.204 98.2966 185.276L100.444 187.209C98.9409 191.503 89.707 197.087 80.4731 196.228C71.2392 195.369 64.7969 186.994 63.9379 180.122C63.2508 174.625 63.3653 171.103 63.9379 170.029H54.4893L52.1271 174.539H58.7841C58.7841 188.059 69.315 200.523 82.8352 200.523Z" fill="white"/>
<circle cx="76.1767" cy="206.106" r="3.43587" fill="white"/>
<circle cx="92.9275" cy="206.106" r="3.43587" fill="white"/>
<path d="M88.3095 166.002C89.7523 164.352 92.1267 157.319 90.9915 152.323C90.2727 149.158 89.174 146.74 87.5117 144.664C84.7807 142.904 82.1862 141.999 82.1862 141.999L79.5284 139.123C79.5284 139.123 81.3916 139.504 82.1862 140.027C84.4076 141.49 86.149 142.962 87.5117 144.664C90.1023 146.333 92.8157 148.77 93.5537 151.934C95.009 158.174 93.7978 163.506 90.9533 168.133C91.0067 168.192 91.0599 168.25 91.1129 168.308C99.036 169.232 102.651 176.72 98.6582 182.493C94.2024 188.933 81.5445 197.574 73.621 190.233C63.9557 185.407 67.5765 170.516 72.0323 164.074C76.0801 158.224 84.7226 158.622 88.3095 166.002Z" fill="url(#paint1_linear)"/>
<path fill-rule="evenodd" clip-rule="evenodd" d="M55.7019 139.063C65.3526 131.752 80.5876 132.802 87.557 144.636C84.933 147.956 80.8285 149.69 77.4271 150.177C70.209 151.208 61.2705 148.122 55.8516 140.288C55.4578 139.853 55.4672 139.448 55.7019 139.063Z" fill="url(#paint2_linear)"/>
<path d="M185.355 155.833C186.672 153.929 185.994 151.464 183.362 151.188C182.839 151.126 181.91 150.678 181.707 150.076C180.532 147.658 177.959 147.883 176.633 149.8C175.174 151.91 173.987 156.788 177.154 158.369C179.749 160.774 183.896 157.943 185.355 155.833Z" fill="white"/>
<path d="M145.257 200.968C154.051 200.968 160.852 197.533 165.799 193.342V172.456H144.913V181.594H155.562V188.464C152.883 190.388 149.448 191.349 145.6 191.349C137.081 191.349 131.035 184.891 131.035 176.097C131.035 167.784 137.15 160.983 144.845 160.983C150.41 160.983 153.707 162.769 157.417 165.861L164.081 157.822C159.066 153.563 153.845 151.227 145.188 151.227C130.623 151.227 119.974 162.426 119.974 176.097C119.974 190.456 130.28 200.968 145.257 200.968ZM175.361 200.143H185.804V163.319H175.361V200.143ZM196.093 200.143H206.536V149.99H196.093V200.143ZM226.787 200.831C231.87 200.831 235.374 198.976 237.916 196.159V200.143H248.016V178.777C248.016 173.83 246.779 169.777 244.031 167.029C241.42 164.418 237.298 162.906 231.596 162.906C225.343 162.906 221.359 164.074 217.305 165.861L219.916 173.83C223.283 172.594 226.099 171.838 230.084 171.838C235.306 171.838 237.985 174.242 237.985 178.571V179.189C235.374 178.296 232.695 177.678 228.985 177.678C220.259 177.678 214.145 181.388 214.145 189.426C214.145 196.846 219.847 200.831 226.787 200.831ZM229.946 193.617C226.58 193.617 224.244 191.968 224.244 189.151C224.244 185.716 226.993 183.93 231.459 183.93C234 183.93 236.336 184.479 238.122 185.304V187.159C238.122 190.937 234.825 193.617 229.946 193.617ZM269.918 200.831C277.888 200.831 284.002 197.121 284.002 188.945C284.002 182.075 278.025 179.601 272.872 177.884C268.887 176.51 265.383 175.548 265.383 173.487C265.383 171.906 266.689 170.807 269.231 170.807C271.91 170.807 275.552 172.113 279.193 174.242L283.177 167.029C279.193 164.349 274.109 162.769 269.437 162.769C262.017 162.769 255.971 166.96 255.971 174.449C255.971 181.731 261.811 184.136 266.964 185.647C271.018 186.884 274.59 187.64 274.59 189.907C274.59 191.693 273.216 192.792 270.193 192.792C266.758 192.792 262.566 191.281 258.582 188.395L254.116 195.266C258.994 199.113 264.765 200.831 269.918 200.831Z" fill="white"/>
<defs>
<linearGradient id="paint0_linear" x1="169.5" y1="0" x2="169.5" y2="339" gradientUnits="userSpaceOnUse">
<stop stop-color="#00BFFF"/>
<stop offset="0.443162" stop-color="#03B6F2"/>
<stop offset="1" stop-color="#08ABE1"/>
</linearGradient>
<linearGradient id="paint1_linear" x1="80.7162" y1="140.039" x2="95.6001" y2="189.389" gradientUnits="userSpaceOnUse">
<stop stop-color="#F01F0B"/>
<stop offset="0.454236" stop-color="#EF1E0A"/>
<stop offset="1" stop-color="#EF1D0B"/>
</linearGradient>
<linearGradient id="paint2_linear" x1="83.5207" y1="142.66" x2="49.3177" y2="138.469" gradientUnits="userSpaceOnUse">
<stop stop-color="#9ADF14"/>
<stop offset="1" stop-color="#8FCB21"/>
</linearGradient>
</defs>
</svg>
